<svg width="16" height="9" viewBox="0 0 16 9" fill="none" xmlns="http://www.w3.org/2000/svg">
<rect x="6.06641" y="2" width="8.0884" height="4" fill="#353535"/>
<rect x="0.000488281" y="5" width="4.0442" height="4" fill="#858585"/>
<path d="M0.730418 3H2.02259H3.31476C3.58282 3 3.71631 2.67521 3.52572 2.4867L2.23355 1.20866C2.11667 1.09305 1.92851 1.09305 1.81162 1.20866L0.519454 2.48671C0.328864 2.67521 0.462351 3 0.730418 3Z" fill="#353535"/>
<path d="M2.02259 5V3M2.02259 3H0.730418C0.462351 3 0.328864 2.67521 0.519454 2.48671L1.81162 1.20866C1.92851 1.09305 2.11667 1.09305 2.23355 1.20866L3.52572 2.4867C3.71631 2.67521 3.58282 3 3.31476 3H2.02259Z" stroke="#353535" stroke-width="0.3" stroke-linejoin="round"/>
<rect x="6.06641" y="5" width="9.09945" height="4" fill="#858585"/>
<rect x="5.05566" y="4" width="2.0221" height="5" fill="#353535"/>
<rect x="13.144" y="4" width="2.0221" height="5" fill="#353535"/>
</svg>
