<svg width="29" height="16" viewBox="0 0 29 16" fill="none" xmlns="http://www.w3.org/2000/svg">
<path d="M2.5 13.2123L2 11.2123C5.90029 10.8872 9.39909 9.36561 11.7686 8.15687C11.5774 7.60474 11.5 7.10415 11.5 6.71227C10.5 2.21227 17 1.71227 17 5.71227C17 6.87392 15.7261 8.02678 13.8721 9.07996C14.0911 9.38028 14.3135 9.60443 14.5 9.71228C15.3649 10.2123 19.5 12.7123 23 11.7123C26.5 10.7123 26 7.71228 25 6.21228C24.2 5.01228 23.3333 5.04561 23 5.21228V3.71228C24 3.54561 26.2 3.91228 27 6.71228C28 10.2123 25.5 14.7123 18.5 13.2123C15.4129 12.5508 13.6022 11.1498 12.5987 9.74641C9.40966 11.2947 5.20044 12.5604 2.5 13.2123Z" fill="black"/>
<path d="M13 7.5C12.6667 6.5 12.4 4.5 14 4.5C16 4.5 16.5 7 13 7.5Z" fill="#EBE9E4"/>
</svg>
