<svg width="17" height="11" viewBox="0 0 17 11" fill="none" xmlns="http://www.w3.org/2000/svg">
<rect x="1.34814" y="4.00006" width="1.34807" height="6.6667" fill="#858585"/>
<rect x="13.481" y="4.00006" width="1.34807" height="6.6667" fill="#858585"/>
<rect x="3.04736" y="7.81982" width="1.31655" height="2.51751" fill="#858585"/>
<rect width="1.26244" height="2.54879" transform="matrix(0.269361 -0.963039 0.964545 0.263917 2.69629 6.51807)" fill="#353535"/>
<rect width="1.26244" height="2.54879" transform="matrix(-0.269361 -0.963039 -0.964545 0.263917 13.1597 6.51807)" fill="#353535"/>
<rect x="11.4727" y="7.81982" width="1.31655" height="2.51751" fill="#858585"/>
<path d="M4.67122 4.00012H11.4295L12.3511 6.2572L7.9187 6.95168L3.48633 6.2572L4.67122 4.00012Z" fill="#858585"/>
<path d="M3.48633 6.25708L8.0463 6.84919L12.3511 6.25708V9.64269H3.48633V6.25708Z" fill="#353535"/>
<path d="M11.9996 7.51569L12.0434 6.86461L9.36646 7.45047L9.93696 7.73271L11.9996 7.51569Z" fill="#858585"/>
<path d="M12.0433 7.90673L12.0433 7.69568L9.93684 7.95013L10.0246 8.08035L12.0433 7.90673Z" fill="#858585"/>
<path d="M3.80386 7.90673L3.80386 7.69568L5.91033 7.95013L5.82256 8.08035L3.80386 7.90673Z" fill="#858585"/>
<path d="M3.87154 7.51569L3.82766 6.86461L6.50464 7.45047L5.93413 7.73271L3.87154 7.51569Z" fill="#858585"/>
<rect width="1.14352" height="8.93247" transform="matrix(-0.329532 -0.944144 0.920458 -0.390841 0.376953 4.57092)" fill="#353535"/>
<rect width="1.26719" height="8.93247" transform="matrix(0.329532 -0.944144 -0.920458 -0.390841 15.7593 4.68768)" fill="#353535"/>
</svg>
